<mxfile host="app.diagrams.net" agent="Mozilla/5.0 (X11; Ubuntu; Linux x86_64; rv:138.0) Gecko/20100101 Firefox/138.0" version="27.0.3">
  <diagram name="第 1 页" id="vTpsF3RjYZTJQrctkPaP">
    <mxGraphModel dx="786" dy="1090" grid="1" gridSize="10" guides="1" tooltips="1" connect="1" arrows="1" fold="1" page="1" pageScale="1" pageWidth="827" pageHeight="1169" math="0" shadow="0">
      <root>
        <mxCell id="0" />
        <mxCell id="1" parent="0" />
        <mxCell id="FaP2gmVsoH6NU2fmM0v--8" style="edgeStyle=orthogonalEdgeStyle;rounded=0;orthogonalLoop=1;jettySize=auto;html=1;entryX=1;entryY=0.5;entryDx=0;entryDy=0;fontSize=15;" edge="1" parent="1" source="FaP2gmVsoH6NU2fmM0v--1" target="FaP2gmVsoH6NU2fmM0v--5">
          <mxGeometry relative="1" as="geometry">
            <Array as="points">
              <mxPoint x="380" y="390" />
            </Array>
          </mxGeometry>
        </mxCell>
        <mxCell id="FaP2gmVsoH6NU2fmM0v--1" value="共享的背景图像" style="rounded=1;whiteSpace=wrap;html=1;fontSize=15;" vertex="1" parent="1">
          <mxGeometry x="320" y="250" width="120" height="60" as="geometry" />
        </mxCell>
        <mxCell id="FaP2gmVsoH6NU2fmM0v--9" value="" style="edgeStyle=orthogonalEdgeStyle;rounded=0;orthogonalLoop=1;jettySize=auto;html=1;fontSize=15;" edge="1" parent="1" source="FaP2gmVsoH6NU2fmM0v--2" target="FaP2gmVsoH6NU2fmM0v--3">
          <mxGeometry relative="1" as="geometry" />
        </mxCell>
        <mxCell id="FaP2gmVsoH6NU2fmM0v--2" value="人物的高斯点" style="rounded=1;whiteSpace=wrap;html=1;fontSize=15;" vertex="1" parent="1">
          <mxGeometry x="140" y="50" width="120" height="60" as="geometry" />
        </mxCell>
        <mxCell id="FaP2gmVsoH6NU2fmM0v--10" value="" style="edgeStyle=orthogonalEdgeStyle;rounded=0;orthogonalLoop=1;jettySize=auto;html=1;fontSize=15;" edge="1" parent="1" source="FaP2gmVsoH6NU2fmM0v--3" target="FaP2gmVsoH6NU2fmM0v--4">
          <mxGeometry relative="1" as="geometry" />
        </mxCell>
        <mxCell id="FaP2gmVsoH6NU2fmM0v--3" value="渲染" style="shape=parallelogram;perimeter=parallelogramPerimeter;whiteSpace=wrap;html=1;fixedSize=1;fontSize=15;" vertex="1" parent="1">
          <mxGeometry x="140" y="150" width="120" height="60" as="geometry" />
        </mxCell>
        <mxCell id="FaP2gmVsoH6NU2fmM0v--7" style="edgeStyle=orthogonalEdgeStyle;rounded=0;orthogonalLoop=1;jettySize=auto;html=1;entryX=0;entryY=0.5;entryDx=0;entryDy=0;fontSize=15;" edge="1" parent="1" source="FaP2gmVsoH6NU2fmM0v--4" target="FaP2gmVsoH6NU2fmM0v--5">
          <mxGeometry relative="1" as="geometry">
            <Array as="points">
              <mxPoint x="200" y="390" />
            </Array>
          </mxGeometry>
        </mxCell>
        <mxCell id="FaP2gmVsoH6NU2fmM0v--4" value="人物图像" style="rounded=1;whiteSpace=wrap;html=1;fontSize=15;" vertex="1" parent="1">
          <mxGeometry x="140" y="250" width="120" height="60" as="geometry" />
        </mxCell>
        <mxCell id="FaP2gmVsoH6NU2fmM0v--13" value="" style="edgeStyle=orthogonalEdgeStyle;rounded=0;orthogonalLoop=1;jettySize=auto;html=1;fontSize=15;" edge="1" parent="1" source="FaP2gmVsoH6NU2fmM0v--5" target="FaP2gmVsoH6NU2fmM0v--12">
          <mxGeometry relative="1" as="geometry" />
        </mxCell>
        <mxCell id="FaP2gmVsoH6NU2fmM0v--5" value="图像合成" style="shape=parallelogram;perimeter=parallelogramPerimeter;whiteSpace=wrap;html=1;fixedSize=1;fontSize=15;" vertex="1" parent="1">
          <mxGeometry x="230" y="360" width="120" height="60" as="geometry" />
        </mxCell>
        <mxCell id="FaP2gmVsoH6NU2fmM0v--16" style="edgeStyle=orthogonalEdgeStyle;rounded=0;orthogonalLoop=1;jettySize=auto;html=1;entryX=1;entryY=0.5;entryDx=0;entryDy=0;fontSize=15;" edge="1" parent="1" source="FaP2gmVsoH6NU2fmM0v--11" target="FaP2gmVsoH6NU2fmM0v--14">
          <mxGeometry relative="1" as="geometry">
            <Array as="points">
              <mxPoint x="580" y="610" />
            </Array>
          </mxGeometry>
        </mxCell>
        <mxCell id="FaP2gmVsoH6NU2fmM0v--11" value="&lt;div&gt;原始图像&lt;/div&gt;&lt;div&gt;（真值）&lt;/div&gt;" style="rounded=1;whiteSpace=wrap;html=1;fontSize=15;" vertex="1" parent="1">
          <mxGeometry x="520" y="250" width="120" height="60" as="geometry" />
        </mxCell>
        <mxCell id="FaP2gmVsoH6NU2fmM0v--15" style="edgeStyle=orthogonalEdgeStyle;rounded=0;orthogonalLoop=1;jettySize=auto;html=1;entryX=0;entryY=0.5;entryDx=0;entryDy=0;fontSize=15;" edge="1" parent="1" source="FaP2gmVsoH6NU2fmM0v--12" target="FaP2gmVsoH6NU2fmM0v--14">
          <mxGeometry relative="1" as="geometry">
            <Array as="points">
              <mxPoint x="290" y="610" />
            </Array>
          </mxGeometry>
        </mxCell>
        <mxCell id="FaP2gmVsoH6NU2fmM0v--12" value="合成图像" style="rounded=1;whiteSpace=wrap;html=1;fontSize=15;" vertex="1" parent="1">
          <mxGeometry x="230" y="470" width="120" height="60" as="geometry" />
        </mxCell>
        <mxCell id="FaP2gmVsoH6NU2fmM0v--17" style="edgeStyle=orthogonalEdgeStyle;rounded=0;orthogonalLoop=1;jettySize=auto;html=1;entryX=0;entryY=0.5;entryDx=0;entryDy=0;fontSize=15;" edge="1" parent="1" source="FaP2gmVsoH6NU2fmM0v--14" target="FaP2gmVsoH6NU2fmM0v--2">
          <mxGeometry relative="1" as="geometry">
            <Array as="points">
              <mxPoint x="424" y="710" />
              <mxPoint x="90" y="710" />
              <mxPoint x="90" y="80" />
            </Array>
          </mxGeometry>
        </mxCell>
        <mxCell id="FaP2gmVsoH6NU2fmM0v--18" value="梯度优化" style="edgeLabel;html=1;align=center;verticalAlign=middle;resizable=0;points=[];fontSize=15;" vertex="1" connectable="0" parent="FaP2gmVsoH6NU2fmM0v--17">
          <mxGeometry x="0.0995" y="2" relative="1" as="geometry">
            <mxPoint as="offset" />
          </mxGeometry>
        </mxCell>
        <mxCell id="FaP2gmVsoH6NU2fmM0v--14" value="计算loss" style="shape=parallelogram;perimeter=parallelogramPerimeter;whiteSpace=wrap;html=1;fixedSize=1;fontSize=15;" vertex="1" parent="1">
          <mxGeometry x="364" y="580" width="120" height="60" as="geometry" />
        </mxCell>
      </root>
    </mxGraphModel>
  </diagram>
</mxfile>
